<?xml version="1.0" encoding="UTF-8"?>
<!DOCTYPE svg PUBLIC "-//W3C//DTD SVG 1.1//EN" "http://www.w3.org/Graphics/SVG/1.1/DTD/svg11.dtd">
<!-- Creator: CorelDRAW -->
<svg xmlns="http://www.w3.org/2000/svg" xml:space="preserve" width="0.493346in" height="0.282366in" version="1.1" style="shape-rendering:geometricPrecision; text-rendering:geometricPrecision; image-rendering:optimizeQuality; fill-rule:evenodd; clip-rule:evenodd"
viewBox="0 0 73.96 42.33"
 xmlns:xlink="http://www.w3.org/1999/xlink"
 xmlns:xodm="http://www.corel.com/coreldraw/odm/2003">
 <defs>
  <style type="text/css">
   <![CDATA[
    .fil2 {fill:#1F1B71}
    .fil1 {fill:#322D98;fill-rule:nonzero}
    .fil12 {fill:url(#id0)}
    .fil3 {fill:url(#id1)}
    .fil8 {fill:url(#id2)}
    .fil14 {fill:url(#id3)}
    .fil10 {fill:url(#id4)}
    .fil6 {fill:url(#id5)}
    .fil5 {fill:url(#id6)}
    .fil0 {fill:url(#id7)}
    .fil15 {fill:url(#id8);fill-rule:nonzero}
    .fil11 {fill:url(#id9);fill-rule:nonzero}
    .fil13 {fill:url(#id10);fill-rule:nonzero}
    .fil9 {fill:url(#id11);fill-rule:nonzero}
    .fil7 {fill:url(#id12);fill-rule:nonzero}
    .fil4 {fill:url(#id13);fill-rule:nonzero}
   ]]>
  </style>
  <linearGradient id="id0" gradientUnits="userSpaceOnUse" x1="16.23" y1="31.26" x2="16.13" y2="36.43">
   <stop offset="0" style="stop-opacity:1; stop-color:#4F2603"/>
   <stop offset="1" style="stop-opacity:1; stop-color:#E0A95C"/>
  </linearGradient>
  <linearGradient id="id1" gradientUnits="userSpaceOnUse" x1="16.25" y1="0.22" x2="16.12" y2="15.29">
   <stop offset="0" style="stop-opacity:1; stop-color:#E0A95C"/>
   <stop offset="1" style="stop-opacity:1; stop-color:#4F2603"/>
  </linearGradient>
  <linearGradient id="id2" gradientUnits="userSpaceOnUse" x1="19.15" y1="29.27" x2="16.2" y2="37.36">
   <stop offset="0" style="stop-opacity:1; stop-color:#E0A95C"/>
   <stop offset="0.478431" style="stop-opacity:1; stop-color:#986830"/>
   <stop offset="1" style="stop-opacity:1; stop-color:#4F2603"/>
  </linearGradient>
  <linearGradient id="id3" gradientUnits="userSpaceOnUse" x1="16.13" y1="31.45" x2="15.19" y2="36.32">
   <stop offset="0" style="stop-opacity:1; stop-color:#E0A95C"/>
   <stop offset="0.54902" style="stop-opacity:1; stop-color:#986830"/>
   <stop offset="1" style="stop-opacity:1; stop-color:#4F2603"/>
  </linearGradient>
  <linearGradient id="id4" gradientUnits="userSpaceOnUse" xlink:href="#id0" x1="19.35" y1="28.97" x2="17.66" y2="37.43">
  </linearGradient>
  <linearGradient id="id5" gradientUnits="userSpaceOnUse" xlink:href="#id0" x1="15.06" y1="23.66" x2="15.55" y2="38.09">
  </linearGradient>
  <linearGradient id="id6" gradientUnits="userSpaceOnUse" xlink:href="#id1" x1="14.5" y1="24.05" x2="13.79" y2="37.93">
  </linearGradient>
  <radialGradient id="id7" gradientUnits="userSpaceOnUse" gradientTransform="matrix(0.448821 1.27275 -1.30438 0.452805 42 -9)" cx="18.07" cy="24.7" r="28.47" fx="18.07" fy="24.7">
   <stop offset="0" style="stop-opacity:1; stop-color:#574FE3"/>
   <stop offset="1" style="stop-opacity:1; stop-color:#1F1B71"/>
  </radialGradient>
  <linearGradient id="id8" gradientUnits="userSpaceOnUse" xlink:href="#id0" x1="16.22" y1="31.15" x2="15.48" y2="36.56">
  </linearGradient>
  <linearGradient id="id9" gradientUnits="userSpaceOnUse" x1="19.36" y1="29.16" x2="16.42" y2="37.64">
   <stop offset="0" style="stop-opacity:1; stop-color:#E0A95C"/>
   <stop offset="0.458824" style="stop-opacity:1; stop-color:#E0A95C"/>
   <stop offset="1" style="stop-opacity:1; stop-color:#4F2603"/>
  </linearGradient>
  <linearGradient id="id10" gradientUnits="userSpaceOnUse" xlink:href="#id1" x1="16.22" y1="31.15" x2="15.48" y2="36.56">
  </linearGradient>
  <linearGradient id="id11" gradientUnits="userSpaceOnUse" xlink:href="#id9" x1="19.36" y1="29.16" x2="16.42" y2="37.64">
  </linearGradient>
  <linearGradient id="id12" gradientUnits="userSpaceOnUse" xlink:href="#id1" x1="14.4" y1="23.98" x2="14.91" y2="37.32">
  </linearGradient>
  <linearGradient id="id13" gradientUnits="userSpaceOnUse" xlink:href="#id0" x1="14.4" y1="23.98" x2="14.91" y2="37.32">
  </linearGradient>
 </defs>
 <g id="Layer_x0020_1">
  <metadata id="CorelCorpID_0Corel-Layer"/>
  <g id="_1213238996704">
   <path class="fil0" d="M15.93 19.64l4.17 -4.02 8.87 0c3.89,2.7 4.88,8.44 -0.03,12.71l-12.91 14.01 -12.62 -13.69c-4.87,-4.32 -4.21,-10.26 0.02,-13.02l8.34 0 4.16 4.02zm-1.51 4.45c-0.01,-0.03 -0.02,-0.07 -0.02,-0.11l0.09 0.05c0.25,0.14 0.49,0.28 0.71,0.44 0.22,0.16 0.43,0.32 0.62,0.5 0.34,0.33 0.62,0.69 0.84,1.08 0.22,0.39 0.37,0.82 0.43,1.28l0 0c0.02,0.59 -0.04,1.13 -0.2,1.62 -0.17,0.49 -0.43,0.92 -0.81,1.29 -0.31,0.36 -0.59,0.73 -0.84,1.11 -0.25,0.38 -0.47,0.77 -0.67,1.18l-0 0c-0.13,0.24 -0.24,0.49 -0.34,0.74 -0.09,0.25 -0.17,0.51 -0.21,0.78 -0.01,0.04 -0.01,0.08 -0.02,0.11 -0.06,0.3 -0.08,0.58 -0.05,0.85 0.03,0.27 0.1,0.52 0.21,0.75l0.05 0.1c0.1,0.2 0.23,0.39 0.39,0.56 0.16,0.18 0.34,0.35 0.55,0.51l-0.04 0.08 -0.11 -0.04 -0 0c-0.35,-0.12 -0.69,-0.27 -1.02,-0.44 -0.33,-0.17 -0.66,-0.38 -0.98,-0.61l-0.14 -0.11c-0.22,-0.17 -0.44,-0.36 -0.65,-0.56 -0.21,-0.2 -0.42,-0.42 -0.63,-0.66l-0 -0c-0.06,-0.09 -0.12,-0.17 -0.17,-0.26 -0.05,-0.09 -0.1,-0.18 -0.14,-0.27 -0.15,-0.32 -0.24,-0.67 -0.27,-1.05 -0.03,-0.38 0,-0.79 0.1,-1.23l0 -0c0.11,-0.39 0.28,-0.78 0.53,-1.18 0.25,-0.4 0.59,-0.8 1.03,-1.22 0.3,-0.3 0.56,-0.62 0.78,-0.95 0.23,-0.33 0.42,-0.67 0.59,-1.02l0 -0c0.3,-0.49 0.47,-1.02 0.52,-1.57 0.06,-0.56 0,-1.15 -0.13,-1.76l0 0zm4.94 5.07l0 -0 0.08 -0.02 0.05 0.08c-0.23,0.27 -0.33,0.68 -0.33,1.24 0,0.56 0.12,1.26 0.34,2.09 0.14,0.45 0.22,0.95 0.25,1.5 0.01,0.17 0.02,0.35 0.02,0.53 -0,0.23 -0.03,0.45 -0.09,0.65 -0.06,0.21 -0.15,0.4 -0.26,0.58l-0.07 0.11c-0.11,0.14 -0.23,0.28 -0.38,0.4 -0.15,0.12 -0.32,0.24 -0.51,0.35l-0 0c-0.43,0.19 -0.83,0.33 -1.22,0.42 -0.39,0.09 -0.76,0.12 -1.1,0.09l-0.13 -0.01 -0.12 -0.02 -0 -0.1c0.39,-0.1 0.71,-0.24 0.96,-0.44 0.24,-0.19 0.41,-0.43 0.49,-0.74l0.02 -0.1c0.01,-0.07 0.02,-0.14 0.02,-0.21 0,-0.07 0,-0.15 -0,-0.23l0 -0c-0,-0.22 -0.01,-0.44 -0.03,-0.66 -0.02,-0.22 -0.04,-0.43 -0.07,-0.63 -0.02,-0.11 -0.04,-0.21 -0.06,-0.31 -0.02,-0.1 -0.04,-0.2 -0.07,-0.3 -0.1,-0.33 -0.19,-0.66 -0.25,-0.98 -0.05,-0.32 -0.07,-0.62 -0.04,-0.9l0 -0.01c0.19,-0.72 0.52,-1.24 0.96,-1.62 0.43,-0.38 0.96,-0.62 1.55,-0.78l0 0zm-3.75 7.13l0 0 -0.06 -0.01 -0.03 -0 -0.01 -0 0 -0c-0.27,-0.04 -0.57,-0.2 -0.78,-0.45 -0.18,-0.22 -0.3,-0.51 -0.29,-0.88l0 -0c0.07,-0.75 0.26,-1.43 0.55,-2.02 0.29,-0.6 0.68,-1.12 1.17,-1.57l0.01 -0.01 0.08 0.04c-0.03,0.47 0.01,0.9 0.09,1.33 0.08,0.43 0.2,0.85 0.35,1.31 0.12,0.39 0.18,0.72 0.19,1.01 0.01,0.34 -0.05,0.6 -0.18,0.79 -0.13,0.2 -0.31,0.33 -0.55,0.4 -0.13,0.04 -0.28,0.06 -0.45,0.07l-0.07 -0 -0.02 -0z"/>
   <path class="fil1" d="M43.54 14.22l0 1.14c0,0.57 -0.25,0.78 -0.65,0.78 -0.4,0 -0.65,-0.21 -0.65,-0.78l0 -4.31c0,-0.57 0.25,-0.79 0.65,-0.79 0.4,0 0.65,0.22 0.65,0.79l0 0.86 1.19 0 0 -0.78c0,-1.28 -0.64,-2.01 -1.87,-2.01 -1.23,0 -1.87,0.73 -1.87,2.01l0 4.15c0,1.28 0.64,2.01 1.87,2.01 1.23,0 1.87,-0.73 1.87,-2.01l0 -1.06 -1.19 0zm3.21 -0.45l1.43 0 0 3.42 1.28 0 0 -7.99 -1.28 0 0 3.42 -1.43 0 0 -3.42 -1.26 0 0 7.99 1.26 0 0 -3.42zm3.56 -4.56l0 6.08c0,1.28 0.64,2.01 1.87,2.01 1.23,0 1.87,-0.73 1.87,-2.01l0 -6.08 -1.19 0 0 6.16c0,0.57 -0.25,0.78 -0.65,0.78 -0.4,0 -0.65,-0.21 -0.65,-0.78l0 -6.16 -1.26 0zm8.5 7.99c-0.13,-0.3 -0.14,-0.58 -0.14,-0.97l0 -1.23c0,-0.83 -0.21,-1.44 -0.83,-1.7 0.56,-0.26 0.82,-0.8 0.82,-1.62l0 -0.63c0,-1.23 -0.56,-1.84 -1.86,-1.84l-1.89 0 0 7.99 1.26 0 0 -3.25 0.43 0c0.57,0 0.82,0.27 0.82,1.02l0 1.26c0,0.65 0.05,0.78 0.11,0.98l1.28 0zm-2.04 -6.85c0.45,0 0.64,0.25 0.64,0.82l0 0.79c0,0.64 -0.29,0.84 -0.75,0.84l-0.49 0 0 -2.45 0.6 0zm5.18 3.87l0 1.14c0,0.57 -0.25,0.78 -0.65,0.78 -0.4,0 -0.65,-0.21 -0.65,-0.78l0 -4.31c0,-0.57 0.25,-0.79 0.65,-0.79 0.4,0 0.65,0.22 0.65,0.79l0 0.86 1.19 0 0 -0.78c0,-1.28 -0.64,-2.01 -1.87,-2.01 -1.23,0 -1.87,0.73 -1.87,2.01l0 4.15c0,1.28 0.64,2.01 1.87,2.01 1.23,0 1.87,-0.73 1.87,-2.01l0 -1.06 -1.19 0zm3.21 -0.45l1.43 0 0 3.42 1.28 0 0 -7.99 -1.28 0 0 3.42 -1.43 0 0 -3.42 -1.26 0 0 7.99 1.26 0 0 -3.42z"/>
   <path class="fil1" d="M43.88 20.04l-1.84 0 -1.28 7.99 1.15 0 0.22 -1.45 1.54 0 0.22 1.45 1.27 0 -1.28 -7.99zm-0.98 1.41l0.6 4.04 -1.21 0 0.6 -4.04zm6.74 6.57c-0.13,-0.3 -0.14,-0.58 -0.14,-0.97l0 -1.23c0,-0.83 -0.21,-1.44 -0.83,-1.7 0.56,-0.26 0.82,-0.8 0.82,-1.62l0 -0.63c0,-1.23 -0.56,-1.84 -1.86,-1.84l-1.89 0 0 7.99 1.26 0 0 -3.25 0.43 0c0.57,0 0.82,0.27 0.82,1.02l0 1.26c0,0.65 0.05,0.78 0.11,0.98l1.28 0zm-2.04 -6.85c0.45,0 0.64,0.25 0.64,0.82l0 0.79c0,0.64 -0.29,0.84 -0.75,0.84l-0.49 0 0 -2.45 0.6 0zm2.73 6.85l1.26 0 0 -7.99 -1.26 0 0 7.99zm2.01 -6.07c0,2.28 2.45,2.59 2.45,4.23 0,0.57 -0.25,0.78 -0.65,0.78 -0.4,0 -0.65,-0.21 -0.65,-0.78l0 -0.63 -1.19 0 0 0.55c0,1.28 0.64,2.01 1.87,2.01 1.23,0 1.87,-0.73 1.87,-2.01 0,-2.28 -2.45,-2.59 -2.45,-4.23 0,-0.57 0.23,-0.79 0.63,-0.79 0.4,0 0.63,0.22 0.63,0.79l0 0.39 1.19 0 0 -0.31c0,-1.28 -0.63,-2.01 -1.85,-2.01 -1.22,0 -1.85,0.73 -1.85,2.01zm5.68 -0.78l2.17 0 0 -1.14 -3.42 0 0 7.99 3.42 0 0 -1.14 -2.17 0 0 -2.34 1.72 0 0 -1.14 -1.72 0 0 -2.23z"/>
   <path class="fil1" d="M43.77 38.74l1.29 0 0 -7.99 -1.12 0 0 4.78 -1.29 -4.78 -1.57 0 0 7.99 1.13 0 0 -5.79 1.56 5.79zm3.45 -6.85l2.17 0 0 -1.14 -3.42 0 0 7.99 3.42 0 0 -1.14 -2.17 0 0 -2.34 1.72 0 0 -1.14 -1.72 0 0 -2.23zm2.6 0l1.31 0 0 6.85 1.26 0 0 -6.85 1.31 0 0 -1.14 -3.88 0 0 1.14zm7.69 6.85l1.67 0 0.89 -7.99 -1.1 0 -0.65 6.34 -0.63 -6.34 -1.21 0 -0.6 6.3 -0.67 -6.3 -1.22 0 0.89 7.99 1.72 0 0.46 -4.26 0.46 4.26zm4.34 -6.15c0,-0.57 0.25,-0.79 0.65,-0.79 0.4,0 0.65,0.22 0.65,0.79l0 4.31c0,0.57 -0.25,0.79 -0.65,0.79 -0.4,0 -0.65,-0.22 -0.65,-0.79l0 -4.31zm-1.26 4.23c0,1.28 0.67,2.01 1.91,2.01 1.23,0 1.91,-0.73 1.91,-2.01l0 -4.15c0,-1.28 -0.67,-2.01 -1.91,-2.01 -1.23,0 -1.91,0.73 -1.91,2.01l0 4.15zm8.52 1.92c-0.13,-0.3 -0.14,-0.58 -0.14,-0.97l0 -1.23c0,-0.83 -0.21,-1.44 -0.83,-1.7 0.56,-0.26 0.82,-0.8 0.82,-1.62l0 -0.63c0,-1.23 -0.56,-1.84 -1.86,-1.84l-1.89 0 0 7.99 1.26 0 0 -3.25 0.43 0c0.57,0 0.82,0.27 0.82,1.02l0 1.26c0,0.65 0.05,0.78 0.11,0.98l1.28 0zm-2.04 -6.85c0.45,0 0.64,0.25 0.64,0.82l0 0.79c0,0.64 -0.29,0.84 -0.75,0.84l-0.49 0 0 -2.45 0.6 0zm5.59 6.85l1.29 0 -1.75 -4.43 1.75 -3.56 -1.23 0 -1.67 3.48 0 -3.48 -1.26 0 0 7.99 1.26 0 0 -2.45 0.39 -0.73 1.22 3.18z"/>
   <polygon class="fil1" points="37.05,8.43 37.05,39.84 36.01,39.84 36.01,8.43 "/>
   <g>
    <path class="fil2" d="M27.91 13.77l-8.72 0 11.44 -13.77 -2.71 13.77zm-0.23 -7.4l-4.69 5.65 3.58 0 1.11 -5.65z"/>
    <path class="fil2" d="M4.2 13.77l8.72 0 -11.44 -13.77 2.71 13.77zm0.23 -7.4l4.69 5.65 -3.58 0 -1.11 -5.65z"/>
    <path class="fil3" d="M16.04 0.34l4.84 8.56 -4.86 4.87 -4.83 -4.84 4.85 -8.6zm-0.01 2.76l-3.18 5.63 3.18 3.18 3.18 -3.19 -3.18 -5.63z"/>
   </g>
   <g>
    <path class="fil4" d="M12.39 34.06c-0.37,-1.22 0.44,-2.12 1.34,-3.11 1.36,-1.49 2.92,-3.21 0.83,-6.62 0.1,0.53 0.13,1.04 0.08,1.53 -0.06,0.57 -0.23,1.11 -0.54,1.61 -0.17,0.36 -0.37,0.7 -0.6,1.03 -0.23,0.33 -0.49,0.65 -0.79,0.96l-0 0c-0.44,0.41 -0.77,0.81 -1.02,1.2 -0.25,0.39 -0.41,0.77 -0.52,1.15 -0.1,0.43 -0.13,0.83 -0.1,1.2 0.03,0.37 0.12,0.71 0.26,1.02 0.04,0.09 0.09,0.18 0.14,0.27 0.05,0.09 0.11,0.17 0.16,0.25 0.2,0.23 0.41,0.45 0.62,0.65 0.21,0.2 0.42,0.39 0.64,0.56l0.14 0.1c0.31,0.23 0.64,0.43 0.96,0.61 0.23,0.12 0.47,0.23 0.71,0.32 -0.15,-0.12 -0.3,-0.23 -0.43,-0.35 -0.21,-0.17 -0.4,-0.34 -0.57,-0.51l-0.11 -0.11c-0.34,-0.33 -0.6,-0.64 -0.8,-0.93 -0.2,-0.29 -0.33,-0.57 -0.41,-0.83zm1.41 -3.05c-0.88,0.97 -1.68,1.85 -1.32,3.02 0.08,0.25 0.21,0.52 0.4,0.8 0.19,0.29 0.45,0.59 0.79,0.92l0.11 0.11c0.17,0.16 0.36,0.33 0.57,0.5 0.21,0.17 0.44,0.36 0.68,0.54l-0.04 0.08c-0.35,-0.12 -0.69,-0.27 -1.02,-0.44 -0.33,-0.17 -0.66,-0.38 -0.98,-0.61l-0.14 -0.11c-0.22,-0.17 -0.44,-0.36 -0.65,-0.56 -0.21,-0.2 -0.42,-0.42 -0.63,-0.66l-0 -0c-0.06,-0.09 -0.12,-0.17 -0.17,-0.26 -0.05,-0.09 -0.1,-0.18 -0.14,-0.27 -0.15,-0.32 -0.24,-0.67 -0.27,-1.05 -0.03,-0.38 -0,-0.79 0.1,-1.23l0 -0c0.11,-0.39 0.28,-0.78 0.53,-1.18 0.25,-0.4 0.59,-0.8 1.03,-1.22 0.3,-0.3 0.56,-0.62 0.78,-0.95 0.23,-0.33 0.42,-0.67 0.59,-1.02l0 -0c0.3,-0.49 0.47,-1.02 0.52,-1.57 0.06,-0.56 0.01,-1.15 -0.13,-1.76l0.09 -0.04c2.33,3.62 0.71,5.41 -0.7,6.96z"/>
    <path class="fil5" d="M12.44 34.05c-0.94,-3.07 5.82,-4.09 2.03,-9.97 0.26,1.23 0.21,2.38 -0.4,3.37 -0.33,0.71 -0.79,1.37 -1.38,1.98 -0.88,0.83 -1.34,1.61 -1.55,2.37 -0.19,0.87 -0.12,1.61 0.17,2.25 0.08,0.18 0.19,0.36 0.31,0.53 0.41,0.47 0.83,0.87 1.27,1.22 0.05,0.04 0.09,0.07 0.14,0.11 0.63,0.47 1.29,0.81 1.99,1.05 -0.5,-0.37 -0.91,-0.72 -1.26,-1.05 -0.04,-0.04 -0.07,-0.07 -0.11,-0.11 -0.67,-0.66 -1.04,-1.23 -1.2,-1.74z"/>
    <path class="fil6" d="M14.47 24.08c3.79,5.88 -2.97,6.89 -2.03,9.97 0.16,0.51 0.53,1.08 1.2,1.74l0.11 0.11c0.34,0.33 0.76,0.68 1.26,1.05 0.04,0.01 0.08,0.03 0.11,0.04 -0.42,-0.32 -0.74,-0.68 -0.95,-1.09 -0.02,-0.03 -0.04,-0.07 -0.05,-0.11 -0.22,-0.48 -0.29,-1.02 -0.16,-1.63 0.01,-0.04 0.01,-0.07 0.02,-0.11 0.09,-0.55 0.3,-1.05 0.56,-1.54 0.39,-0.81 0.89,-1.58 1.52,-2.3 0.75,-0.73 1.05,-1.7 1,-2.87 -0.13,-0.92 -0.59,-1.68 -1.26,-2.33 -0.37,-0.35 -0.82,-0.66 -1.32,-0.93 0,0 0,0 0,0.01z"/>
    <path class="fil7" d="M14.6 24.21c2.19,3.51 0.59,5.28 -0.8,6.81 -0.88,0.97 -1.68,1.85 -1.32,3.02 0.08,0.25 0.21,0.52 0.4,0.8 0.19,0.29 0.45,0.59 0.79,0.92l0.11 0.11c0.17,0.16 0.36,0.33 0.57,0.5l0.22 0.18 -0.04 -0.04c-0.16,-0.18 -0.3,-0.38 -0.4,-0.58l-0.05 -0.11c-0.11,-0.25 -0.19,-0.51 -0.22,-0.78 -0.03,-0.28 -0.01,-0.57 0.05,-0.88l0.02 -0.11c0.05,-0.28 0.12,-0.54 0.22,-0.8 0.1,-0.26 0.21,-0.51 0.34,-0.75 0.2,-0.41 0.42,-0.81 0.67,-1.19 0.25,-0.39 0.54,-0.76 0.85,-1.12l0 -0c0.37,-0.36 0.63,-0.78 0.79,-1.25 0.16,-0.47 0.22,-1 0.2,-1.58 -0.06,-0.45 -0.21,-0.87 -0.42,-1.25 -0.21,-0.38 -0.49,-0.73 -0.82,-1.06 -0.18,-0.17 -0.39,-0.34 -0.6,-0.49 -0.17,-0.12 -0.35,-0.23 -0.54,-0.34zm-0.87 6.74c1.38,-1.53 2.98,-3.29 0.69,-6.84 -0.02,-0.04 -0.02,-0.08 -0.03,-0.12l0.09 0.05c0.25,0.14 0.49,0.28 0.71,0.44 0.22,0.16 0.43,0.32 0.62,0.5 0.34,0.33 0.62,0.69 0.84,1.08 0.22,0.39 0.37,0.82 0.43,1.28l0 0c0.02,0.59 -0.04,1.13 -0.2,1.62 -0.17,0.49 -0.43,0.92 -0.81,1.29 -0.31,0.36 -0.59,0.73 -0.84,1.11 -0.25,0.38 -0.47,0.77 -0.67,1.18l-0 0c-0.13,0.24 -0.24,0.49 -0.34,0.74 -0.1,0.25 -0.17,0.51 -0.21,0.78 -0.01,0.03 -0.01,0.08 -0.02,0.11 -0.06,0.3 -0.08,0.58 -0.05,0.85 0.03,0.27 0.1,0.52 0.21,0.75l0.05 0.1c0.1,0.2 0.23,0.39 0.39,0.56 0.16,0.18 0.34,0.35 0.55,0.51l-0.04 0.08 -0.11 -0.04 -0.01 -0.01c-0.25,-0.19 -0.48,-0.37 -0.69,-0.54 -0.21,-0.17 -0.4,-0.34 -0.57,-0.51l-0.11 -0.11c-0.34,-0.33 -0.6,-0.64 -0.8,-0.93 -0.2,-0.29 -0.33,-0.57 -0.41,-0.83 -0.37,-1.22 0.44,-2.12 1.34,-3.11z"/>
    <path class="fil8" d="M17.18 33.42c0.05,0.2 0.1,0.41 0.13,0.62 0.06,0.41 0.1,0.85 0.1,1.3 0.01,0.16 0,0.31 -0.02,0.45 -0.01,0.04 -0.01,0.07 -0.02,0.11 -0.16,0.63 -0.7,1 -1.48,1.21 0.08,0.01 0.16,0.02 0.24,0.03 1.11,-0.45 1.77,-0.85 2.14,-1.24 0.03,-0.04 0.06,-0.07 0.09,-0.11 0.47,-0.56 0.34,-1.1 0.14,-1.74 -0.36,-1.11 -0.96,-2.52 0.87,-4.84 -1.16,0.31 -2.1,0.94 -2.48,2.36 -0.07,0.55 0.08,1.19 0.28,1.86z"/>
    <path class="fil9" d="M17.23 33.41c0.03,0.1 0.05,0.2 0.07,0.31 0.02,0.1 0.04,0.21 0.06,0.32 0.03,0.21 0.06,0.42 0.07,0.64 0.02,0.21 0.03,0.44 0.03,0.66 0.01,0.08 0.01,0.16 0,0.24 -0,0.08 -0.01,0.15 -0.02,0.22l-0.02 0.11c-0.08,0.33 -0.26,0.59 -0.52,0.79 -0.07,0.06 -0.15,0.11 -0.24,0.16 0.31,-0.14 0.57,-0.28 0.8,-0.41 0.35,-0.2 0.6,-0.4 0.78,-0.59l0.09 -0.1c0.22,-0.27 0.31,-0.54 0.31,-0.81 0,-0.28 -0.08,-0.57 -0.18,-0.88l-0.06 -0.18c-0.35,-1.08 -0.8,-2.44 0.85,-4.59 -0.52,0.15 -0.99,0.38 -1.37,0.72 -0.42,0.37 -0.74,0.87 -0.93,1.57 -0.04,0.27 -0.02,0.56 0.04,0.87 0.05,0.31 0.14,0.64 0.24,0.97l0 0zm-0.02 0.33c-0.02,-0.1 -0.04,-0.2 -0.07,-0.3 -0.1,-0.33 -0.19,-0.66 -0.25,-0.98 -0.05,-0.32 -0.07,-0.62 -0.04,-0.9l0 -0.01c0.19,-0.72 0.52,-1.24 0.96,-1.62 0.43,-0.38 0.96,-0.62 1.55,-0.78l0.05 0.08c-1.72,2.18 -1.27,3.54 -0.92,4.61l0.06 0.18c0.1,0.32 0.19,0.62 0.19,0.91 -0,0.3 -0.09,0.58 -0.33,0.87l-0.05 0.05 -0.05 0.05c-0.19,0.2 -0.45,0.4 -0.8,0.6 -0.35,0.21 -0.8,0.42 -1.35,0.65l-0.02 0 -0.13 -0.01 -0.12 -0.02 -0 -0.09c0.39,-0.1 0.71,-0.24 0.96,-0.44 0.24,-0.19 0.41,-0.43 0.49,-0.74l0.02 -0.1c0.01,-0.07 0.02,-0.14 0.02,-0.21 0,-0.07 0,-0.15 -0,-0.23l0 -0c-0,-0.22 -0.01,-0.44 -0.03,-0.66 -0.02,-0.22 -0.04,-0.43 -0.07,-0.63 -0.02,-0.11 -0.04,-0.21 -0.06,-0.31z"/>
    <path class="fil10" d="M18.5 34.05c0.2,0.64 0.33,1.18 -0.14,1.74 -0.03,0.03 -0.06,0.07 -0.09,0.11 -0.37,0.39 -1.03,0.79 -2.14,1.24 0.68,0.05 1.45,-0.12 2.3,-0.51 0.38,-0.21 0.67,-0.45 0.88,-0.73 0.03,-0.03 0.05,-0.07 0.07,-0.11 0.23,-0.36 0.34,-0.76 0.35,-1.21 -0,-0.18 -0.01,-0.36 -0.02,-0.53 -0.04,-0.54 -0.12,-1.05 -0.25,-1.49 -0.44,-1.66 -0.47,-2.82 0,-3.37 -0.03,0.01 -0.05,0.01 -0.08,0.02 -1.83,2.32 -1.23,3.72 -0.87,4.84z"/>
    <path class="fil11" d="M18.55 34.03c0.1,0.32 0.19,0.62 0.19,0.91 -0,0.3 -0.09,0.58 -0.33,0.87l-0.05 0.05 -0.05 0.05c-0.19,0.2 -0.45,0.4 -0.8,0.6 -0.31,0.18 -0.69,0.37 -1.15,0.56 0.27,0 0.56,-0.03 0.85,-0.1 0.38,-0.08 0.78,-0.22 1.2,-0.41 0.19,-0.1 0.35,-0.21 0.49,-0.33 0.14,-0.12 0.26,-0.25 0.36,-0.38l0.07 -0.1c0.11,-0.17 0.2,-0.36 0.25,-0.56 0.06,-0.2 0.08,-0.41 0.09,-0.63 -0,-0.18 -0.01,-0.36 -0.02,-0.53 -0.04,-0.54 -0.11,-1.04 -0.25,-1.48l-0 -0c-0.22,-0.83 -0.34,-1.54 -0.34,-2.11 -0,-0.38 0.05,-0.7 0.15,-0.95 -1.48,2.02 -1.06,3.32 -0.72,4.35l0.06 0.18zm0.09 0.91c0,-0.28 -0.08,-0.57 -0.18,-0.88l-0.06 -0.18c-0.36,-1.1 -0.82,-2.49 0.94,-4.7l0.03 -0.02 0.08 -0.02 0.05 0.08c-0.23,0.27 -0.33,0.68 -0.33,1.24 0,0.56 0.12,1.26 0.34,2.09 0.14,0.45 0.22,0.95 0.25,1.5 0.01,0.17 0.02,0.35 0.02,0.53 -0,0.23 -0.03,0.45 -0.09,0.65 -0.06,0.21 -0.15,0.4 -0.26,0.58l-0.07 0.11c-0.11,0.14 -0.23,0.28 -0.38,0.4 -0.15,0.12 -0.32,0.24 -0.51,0.35l-0 0c-0.43,0.19 -0.83,0.33 -1.22,0.42 -0.39,0.09 -0.76,0.12 -1.1,0.09l-0.01 -0.09c0.55,-0.22 0.99,-0.44 1.34,-0.64 0.35,-0.2 0.6,-0.4 0.78,-0.59l0.09 -0.1c0.22,-0.27 0.31,-0.54 0.31,-0.81z"/>
    <path class="fil12" d="M16.19 31.39c-0.52,1.59 -0.67,3.3 -0.63,4.85 0.05,0.01 0.09,0.01 0.13,0.01 0.94,-0.03 1.42,-0.65 0.94,-2.21 -0.3,-0.93 -0.49,-1.7 -0.44,-2.66 -0,0 -0.01,0.01 -0.01,0.01z"/>
    <path class="fil13" d="M16.14 31.71c-0.19,0.65 -0.32,1.31 -0.41,1.98 -0.11,0.85 -0.14,1.7 -0.12,2.51l0.09 0c0.15,-0 0.29,-0.03 0.42,-0.06 0.21,-0.07 0.38,-0.18 0.5,-0.36 0.11,-0.18 0.17,-0.42 0.16,-0.74 -0.01,-0.27 -0.07,-0.6 -0.18,-0.98 -0.15,-0.47 -0.27,-0.89 -0.35,-1.32 -0.06,-0.33 -0.1,-0.67 -0.1,-1.02zm-0.51 1.96c0.1,-0.77 0.26,-1.55 0.51,-2.3l0.01 -0.02 0.01 -0.01 0.08 0.04c-0.03,0.47 0.01,0.9 0.09,1.33 0.08,0.43 0.2,0.85 0.35,1.31 0.12,0.39 0.18,0.72 0.19,1.01 0.01,0.34 -0.05,0.6 -0.18,0.79 -0.13,0.2 -0.31,0.33 -0.55,0.4 -0.13,0.04 -0.28,0.06 -0.45,0.07l-0.07 -0 -0.11 -0.01 -0 -0.04c-0.02,-0.82 0.01,-1.69 0.12,-2.57z"/>
    <path class="fil14" d="M15.56 36.24c-0.04,-1.55 0.11,-3.26 0.63,-4.85 -0.96,0.9 -1.56,2.06 -1.7,3.56 -0.02,0.79 0.59,1.23 1.08,1.29z"/>
    <path class="fil15" d="M15.51 36.18c-0.02,-0.81 0.01,-1.66 0.12,-2.51 0.09,-0.71 0.24,-1.42 0.45,-2.11 -0.41,0.41 -0.75,0.88 -1.01,1.41 -0.28,0.58 -0.47,1.24 -0.54,1.99 -0.01,0.34 0.1,0.61 0.27,0.81 0.19,0.23 0.46,0.37 0.71,0.42zm0.22 -2.5c-0.11,0.87 -0.14,1.73 -0.12,2.55l0 0.06 -0.06 -0.01c-0.28,-0.03 -0.6,-0.19 -0.82,-0.46 -0.18,-0.22 -0.3,-0.51 -0.29,-0.88l0 -0c0.07,-0.75 0.26,-1.43 0.55,-2.02 0.29,-0.6 0.68,-1.12 1.17,-1.57l0.08 0.05c-0.24,0.74 -0.41,1.51 -0.5,2.28z"/>
   </g>
  </g>
 </g>
</svg>
